<svg xmlns="http://www.w3.org/2000/svg" width="22.556" height="20.919" viewBox="0 0 22.556 20.919"><defs><style>.a{fill:#818181;}</style></defs><g transform="translate(0 -16.43)"><path class="a" d="M22.389,25.1h0l-2.88-1.909V16.8a.374.374,0,0,0-.374-.374H3.42a.374.374,0,0,0-.374.374v6.383L.167,25.1h0A.373.373,0,0,0,0,25.407V36.976a.374.374,0,0,0,.374.374H22.182a.374.374,0,0,0,.374-.374V25.407A.373.373,0,0,0,22.389,25.1ZM3.047,26.4,1.875,25.78H3.047Zm-2.3-.374,8.591,4.557L.747,36.28ZM11.278,30.2,20.943,36.6H1.613L11.278,30.2Zm1.94.39,8.591-4.557V36.28l-8.591-5.695Zm6.291-4.8h1.172l-1.172.622Zm1.434-.747H19.509v-.951Zm-2.181-7.856V26.8l-6.253,3.317-1.025-.679a.374.374,0,0,0-.413,0l-1.025.679L3.794,26.8V17.177H18.761ZM3.047,25.033H1.613l1.434-.95Z"/><path class="a" d="M162.511,83.759h2.976a.374.374,0,1,0,0-.747h-2.976a2.606,2.606,0,0,1-2.6-2.6V80.3a2.6,2.6,0,1,1,5.206,0v.276a.563.563,0,1,1-1.127,0v-.524a1.616,1.616,0,1,0-.551,1.213,1.31,1.31,0,0,0,2.425-.689V80.3a3.35,3.35,0,1,0-6.7,0v.11A3.354,3.354,0,0,0,162.511,83.759Zm-.138-2.842a.867.867,0,1,1,.867-.867A.868.868,0,0,1,162.373,80.918Z" transform="translate(-151.233 -57.505)"/></g></svg>