<svg xmlns="http://www.w3.org/2000/svg" xmlns:xlink="http://www.w3.org/1999/xlink" width="38.07" height="38.069" viewBox="0 0 38.07 38.069"><defs><style>.a{mix-blend-mode:luminosity;isolation:isolate;}.b{fill:url(#a);}.c{fill:#fff;fill-rule:evenodd;}</style><linearGradient id="a" x1="0.146" y1="0.146" x2="0.854" y2="0.854" gradientUnits="objectBoundingBox"><stop offset="0" stop-color="#3c5a99"/><stop offset="1" stop-color="#2b1e99"/></linearGradient></defs><g class="a" transform="translate(0 0)"><ellipse class="b" cx="14.572" cy="14.572" rx="14.572" ry="14.572" transform="matrix(0.382, -0.924, 0.924, 0.382, 0, 26.931)"/><path class="c" d="M40.389,590.215v8.925a.232.232,0,0,0,.232.233h3.315a.232.232,0,0,0,.232-.233v-9.071h2.4a.232.232,0,0,0,.232-.213l.231-2.733a.233.233,0,0,0-.232-.252H44.168v-1.939a.823.823,0,0,1,.823-.823h1.852a.232.232,0,0,0,.232-.232v-2.733a.232.232,0,0,0-.232-.232H43.714a3.325,3.325,0,0,0-3.325,3.325v2.635H38.731a.232.232,0,0,0-.232.232v2.733a.232.232,0,0,0,.232.232h1.657Z" transform="translate(-23.769 -571.015)"/></g></svg>