<svg xmlns="http://www.w3.org/2000/svg" xmlns:xlink="http://www.w3.org/1999/xlink" width="35.281" height="35.281" viewBox="0 0 35.281 35.281"><defs><style>.a{mix-blend-mode:luminosity;isolation:isolate;}.b{fill:url(#a);}.c{fill:#fff;}</style><linearGradient id="a" x1="0.074" y1="0.926" x2="1.154" y2="-0.154" gradientUnits="objectBoundingBox"><stop offset="0.001" stop-color="#fbe18a"/><stop offset="0.209" stop-color="#fcbb45"/><stop offset="0.376" stop-color="#f75274"/><stop offset="0.524" stop-color="#d53692"/><stop offset="0.739" stop-color="#8f39ce"/><stop offset="1" stop-color="#5b4fe9"/></linearGradient></defs><g class="a" transform="translate(0 0)"><ellipse class="b" cx="14.572" cy="14.572" rx="14.572" ry="14.572" transform="translate(0 28.294) rotate(-76.128)"/><ellipse class="c" cx="1.132" cy="1.132" rx="1.132" ry="1.132" transform="translate(21.667 11.433)"/><path class="c" d="M321.68,590.639a4.755,4.755,0,1,0,4.755,4.755A4.761,4.761,0,0,0,321.68,590.639Zm0,7.8a3.046,3.046,0,1,1,3.046-3.046A3.05,3.05,0,0,1,321.68,598.44Z" transform="translate(-303.914 -577.754)"/><path class="c" d="M319.384,599.073h-7.709a5.806,5.806,0,0,1-5.8-5.8v-7.71a5.806,5.806,0,0,1,5.8-5.8h7.709a5.807,5.807,0,0,1,5.8,5.8v7.71A5.806,5.806,0,0,1,319.384,599.073Zm-7.709-17.492a3.988,3.988,0,0,0-3.983,3.984v7.71a3.988,3.988,0,0,0,3.983,3.983h7.709a3.988,3.988,0,0,0,3.984-3.983v-7.71a3.988,3.988,0,0,0-3.984-3.984Z" transform="translate(-297.843 -571.778)"/></g></svg>