<svg xmlns="http://www.w3.org/2000/svg" xmlns:xlink="http://www.w3.org/1999/xlink" width="35.694" height="35.693" viewBox="0 0 35.694 35.693"><defs><style>.a{mix-blend-mode:luminosity;isolation:isolate;}.b{fill:url(#a);}.c{fill:#fff;}</style><linearGradient id="a" x1="0.146" y1="0.146" x2="0.854" y2="0.854" gradientUnits="objectBoundingBox"><stop offset="0" stop-color="#007ab5"/><stop offset="1" stop-color="#0046e5"/></linearGradient></defs><g class="a"><g transform="translate(0 0)"><ellipse class="b" cx="14.572" cy="14.572" rx="14.572" ry="14.572" transform="matrix(0.966, 0.259, -0.259, 0.966, 7.543, 0)"/><path class="c" d="M449.854,588.176h3.19v10.246h-3.19Zm1.6-5.091a1.847,1.847,0,1,1-1.849,1.845,1.847,1.847,0,0,1,1.849-1.845" transform="translate(-438.946 -573.397)"/><path class="c" d="M461.678,594.077h3.055v1.4h.042a3.347,3.347,0,0,1,3.016-1.655c3.225,0,3.819,2.121,3.819,4.88v5.619h-3.183v-4.981c0-1.189-.023-2.717-1.655-2.717-1.658,0-1.911,1.294-1.911,2.63v5.068h-3.183Z" transform="translate(-445.583 -579.297)"/></g></g></svg>