<svg xmlns="http://www.w3.org/2000/svg" width="26.128" height="30.717" viewBox="0 0 26.128 30.717"><defs><style>.a{fill:#263463;}</style></defs><g transform="translate(-36.073)"><g transform="translate(36.073)"><path class="a" d="M143.609,16.551h.2a5.87,5.87,0,0,0,4.484-1.94c2.449-2.761,2.042-7.493,2-7.945-.159-3.39-1.762-5.012-3.085-5.769a7.072,7.072,0,0,0-3.422-.9h-.108a7.083,7.083,0,0,0-3.422.871c-1.336.757-2.964,2.379-3.123,5.795-.045.452-.452,5.184,2,7.945A5.846,5.846,0,0,0,143.609,16.551Zm-4.777-9.726c0-.019.006-.038.006-.051.21-4.561,3.448-5.051,4.834-5.051h.076c1.717.038,4.637.738,4.834,5.051a.124.124,0,0,0,.006.051c.006.045.452,4.37-1.571,6.647a4.169,4.169,0,0,1-3.276,1.361h-.064a4.155,4.155,0,0,1-3.27-1.361C138.393,11.208,138.826,6.863,138.832,6.825Z" transform="translate(-130.656)"/><path class="a" d="M62.2,267.154v-.019c0-.051-.006-.1-.006-.159-.038-1.259-.121-4.2-2.882-5.146l-.064-.019a18.355,18.355,0,0,1-5.28-2.4.859.859,0,1,0-.986,1.406,19.812,19.812,0,0,0,5.808,2.653c1.482.528,1.647,2.112,1.692,3.562a1.276,1.276,0,0,0,.006.159,11.546,11.546,0,0,1-.134,1.966A23.409,23.409,0,0,1,49.14,271.76a23.544,23.544,0,0,1-11.221-2.614,10.931,10.931,0,0,1-.134-1.966c0-.051.006-.1.006-.159.045-1.45.21-3.034,1.692-3.562a20,20,0,0,0,5.808-2.653.859.859,0,1,0-.986-1.406,18.154,18.154,0,0,1-5.28,2.4c-.025.006-.045.013-.064.019-2.761.948-2.843,3.893-2.882,5.146a1.278,1.278,0,0,1-.006.159v.019a9.754,9.754,0,0,0,.324,2.882.816.816,0,0,0,.331.4c.191.127,4.764,3.041,12.417,3.041s12.226-2.92,12.417-3.041a.851.851,0,0,0,.331-.4A10.234,10.234,0,0,0,62.2,267.154Z" transform="translate(-36.073 -242.754)"/></g></g></svg>