<svg xmlns="http://www.w3.org/2000/svg" width="43.612" height="44.839" viewBox="0 0 43.612 44.839"><defs><style>.a{fill:#00456a;}.b{fill:#81d62b;}</style></defs><g transform="translate(0)"><path class="a" d="M598.208,476.01c.418-2.8.787-5.463,1.218-8.112.58-3.569.015-6.717-3.055-9.06-1.4-1.069-2.689-2.294-4.126-3.31a9.691,9.691,0,0,1-3.544-4.274q-3.186-7.916-6.18-15.908a2.979,2.979,0,0,1,1.958-3.888,3.064,3.064,0,0,1,4.061,1.859c1.271,3.283,2.42,6.613,3.629,9.92.386,1.056.782,2.108,1.2,3.149a9.417,9.417,0,0,0,3.256,4.221c2.224,1.6,4.411,3.252,6.675,4.792,2.134,1.452,4.433,2.582,7.12,2.346a8.545,8.545,0,0,0,2.911-.7,2.006,2.006,0,0,1,2.164.189,19.56,19.56,0,0,1,7,7.908,36.128,36.128,0,0,1,3.4,10.078c.222,1.126-.543.846-1.073.847q-12.728.017-25.457.006C599.015,476.069,598.659,476.034,598.208,476.01Z" transform="translate(-582.328 -431.255)"/><path class="b" d="M617.974,455.974a7.675,7.675,0,0,1,.177-15.348,7.675,7.675,0,1,1-.177,15.348Z" transform="translate(-590.869 -432.889)"/></g></svg>