<svg xmlns="http://www.w3.org/2000/svg" width="23.5" height="32.609" viewBox="0 0 23.5 32.609"><defs><style>.a{fill:#263463;stroke:#fff;}</style></defs><g transform="translate(-81.1 -10.5)"><g transform="translate(81.6 11)"><path class="a" d="M100.6,22.908V18.747a7.747,7.747,0,1,0-15.495,0v4.161a3.91,3.91,0,0,0-3.5,3.883V38.706a3.908,3.908,0,0,0,3.9,3.9H100.2a3.9,3.9,0,0,0,3.9-3.9V26.791A3.9,3.9,0,0,0,100.6,22.908ZM87.735,18.747a5.115,5.115,0,1,1,10.231,0v4.135H87.735Zm13.734,19.959a1.273,1.273,0,0,1-1.271,1.271H85.5a1.269,1.269,0,0,1-1.271-1.271V26.791A1.269,1.269,0,0,1,85.5,25.521H100.2a1.269,1.269,0,0,1,1.271,1.271Z" transform="translate(-81.6 -11)"/><path class="a" d="M236.916,349a1.313,1.313,0,0,0-1.316,1.316V352.9a1.316,1.316,0,1,0,2.632,0v-2.587A1.317,1.317,0,0,0,236.916,349Z" transform="translate(-225.666 -327.197)"/></g></g></svg>