<svg xmlns="http://www.w3.org/2000/svg" width="54.996" height="55.709" viewBox="0 0 54.996 55.709"><defs><style>.a{fill:#263463;}.b{fill:#81d62b;}</style></defs><g transform="translate(0 0)"><circle class="a" cx="3.456" cy="3.456" r="3.456" transform="translate(22.461 10.488)"/><circle class="a" cx="3.052" cy="3.052" r="3.052" transform="translate(22.976)"/><path class="a" d="M19.622,394.013a1.543,1.543,0,0,0,1.526-1.443v-8.436a.364.364,0,0,1,.232-.3c1.039-.4,1.059-1.794,1.024-2.351a.135.135,0,0,0-.222-.111l-1.3.789a.991.991,0,0,1-.434.121H12.032c-.267,0-.312-.356-.311-.6,0-.129.014-.338.014-.467v-4.673c0-.13-.03-.108-.146-.053-1.365.647-6.121,3.255-7.433,3.978-1.066.62-.817,2.287,1.1,2.287H7.944c.129,0,.32.065.357.188,0,0-.095,9.655-.095,9.7a1.363,1.363,0,1,0,2.725,0c0-.049-.015-4.215-.015-4.215,0-.129.1-.3.234-.3h4.414c.129,0,.175.083.107.193-.432.7-1.558,2.7-2.075,3.495a1.332,1.332,0,0,0,.12,1.746,1.316,1.316,0,0,0,1.887,0,42.294,42.294,0,0,0,2.322-3.966c.056-.116.1-.106.1.023,0,1.1.011,2.326.044,2.972,0,0,0,.007,0,.01A1.553,1.553,0,0,0,19.622,394.013Z" transform="translate(-3.529 -338.423)"/><path class="a" d="M150.076,118.26a2.245,2.245,0,0,0,2.153-2.12l0-32.007,3.75-3.1a2.069,2.069,0,0,0,.591-.8l3.068-7.326a2.066,2.066,0,0,0-3.44-2.184,2.043,2.043,0,0,0-.381.584l-.384.917-4.377-2.47a1.379,1.379,0,0,0-.678-.178h-6.559a1.382,1.382,0,0,0-.7.19L138.795,72.3l-.416-.994a2.071,2.071,0,0,0-3.821,1.6l3.068,7.326a2.069,2.069,0,0,0,.591.8l4.295,3.552c.007.033.011,31.531.011,31.531a2.1,2.1,0,0,0,4.194.251c.017-.128.015-17.206.015-17.206a.234.234,0,0,1,.234-.234h.818a.234.234,0,0,1,.234.234l0,16.989A2.153,2.153,0,0,0,150.076,118.26ZM144.317,80.7l-3.068-2.537-1.378-3.29,4.321-2.535h5.821l4.344,2.452-1.413,3.374L149.877,80.7h-5.56Z" transform="translate(-121.18 -62.551)"/><circle class="a" cx="2.18" cy="2.18" r="2.18" transform="translate(37.118 18.069)"/><path class="b" d="M402.255,220.159l-.368-1.774-.854-4.122s-.4-1.888-2.1-1.888H395.5c-.327,0-.733-1.018-1-1.018h-3.773a2.138,2.138,0,0,0-1.333.283l-.158.128-2.851,2.309a1.293,1.293,0,0,0-.225.3,1.96,1.96,0,0,0-.249.993v2.718c0,3.593,2.91,4.053,2.91,4.053h.425a.172.172,0,0,1,0,.082l-2.054,7.951a.139.139,0,0,0,.141.183h2.53a.189.189,0,0,1,.189.189v13.03c0,.1,0,.195,0,.2a.12.12,0,0,0,0,.014,1.861,1.861,0,0,0,1.862,1.86,1.829,1.829,0,0,0,1.822-1.863V230.435a.18.18,0,0,1,.189-.182l.661.026a.2.2,0,0,1,.189.2v13.1c0,.1,0,.195,0,.2s0,.028,0,.047,0,.029,0,.034a1.753,1.753,0,0,0,1.8,1.793,1.887,1.887,0,0,0,1.89-1.863c0-.133-.014-.263-.014-.388v-12.84a.2.2,0,0,1,.189-.2l1.928-.068a.159.159,0,0,0,.155-.193L399.3,222.14h.511C402.76,222.14,402.255,220.159,402.255,220.159Z" transform="translate(-347.291 -190.01)"/><circle class="a" cx="3.456" cy="3.456" r="3.456" transform="translate(43.712 13.336)"/></g></svg>