<svg xmlns="http://www.w3.org/2000/svg" width="19.131" height="17.6" viewBox="0 0 19.131 17.6"><defs><style>.a{fill:#263463;}</style></defs><path class="a" d="M17.586,30.135a5.133,5.133,0,0,0-7.491,0l-.523.547-.531-.556a5.128,5.128,0,0,0-7.491-.008,5.721,5.721,0,0,0,.008,7.839l7.617,7.97a.527.527,0,0,0,.771,0l7.633-7.958a5.738,5.738,0,0,0,.008-7.843Zm-.779,7.033L9.56,44.722,2.329,37.155a4.541,4.541,0,0,1,0-6.218,4.07,4.07,0,0,1,5.942,0l.917.959a.529.529,0,0,0,.775,0l.908-.951a4.07,4.07,0,0,1,5.942,0,4.552,4.552,0,0,1,0,6.222Z" transform="translate(0 -28.501)"/></svg>