<svg xmlns="http://www.w3.org/2000/svg" width="46.878" height="47.518" viewBox="0 0 46.878 47.518"><defs><style>.a{fill:#263463;}.b{fill:#81d62b;}</style></defs><g transform="translate(0)"><g transform="translate(0)"><path class="a" d="M46.742,4.622H42V2.2a1.7,1.7,0,1,0-3.392,0V4.622H17.281V2.2a1.7,1.7,0,1,0-3.392,0V4.622H9.151a4.609,4.609,0,0,0-4.6,4.6V43.336a4.609,4.609,0,0,0,4.6,4.6H46.742a4.609,4.609,0,0,0,4.6-4.6V9.226A4.609,4.609,0,0,0,46.742,4.622Zm-38.8,4.6A1.211,1.211,0,0,1,9.151,8.015h4.738V9.95a1.7,1.7,0,1,0,3.392,0V8.015h21.33V9.95A1.7,1.7,0,0,0,42,9.95V8.015h4.738a1.211,1.211,0,0,1,1.211,1.211v4.264H7.939ZM47.953,43.336a1.212,1.212,0,0,1-1.211,1.212H9.151a1.212,1.212,0,0,1-1.211-1.212V16.883H47.953Z" transform="translate(-4.507 -0.46)"/><path class="a" d="M46.281,47.518H8.69a4.649,4.649,0,0,1-4.643-4.643V8.766A4.649,4.649,0,0,1,8.69,4.122h4.7V1.736a1.736,1.736,0,1,1,3.471,0V4.122H38.111V1.736a1.736,1.736,0,0,1,3.471,0V4.122h4.7a4.649,4.649,0,0,1,4.643,4.643V42.875A4.648,4.648,0,0,1,46.281,47.518ZM8.69,4.2A4.569,4.569,0,0,0,4.126,8.766V42.875A4.569,4.569,0,0,0,8.69,47.439H46.281a4.569,4.569,0,0,0,4.564-4.564V8.766A4.569,4.569,0,0,0,46.281,4.2H41.5V1.736a1.657,1.657,0,0,0-3.313,0V4.2H16.781V1.736a1.657,1.657,0,0,0-3.313,0V4.2ZM46.281,44.126H8.69a1.253,1.253,0,0,1-1.251-1.251V16.383H47.532V42.875A1.252,1.252,0,0,1,46.281,44.126ZM7.518,16.462V42.875A1.173,1.173,0,0,0,8.69,44.047H46.281a1.173,1.173,0,0,0,1.172-1.172V16.462ZM47.532,13.07H7.439v-4.3A1.253,1.253,0,0,1,8.69,7.515h4.778V9.49a1.657,1.657,0,0,0,3.313,0V7.515h21.41V9.49a1.657,1.657,0,0,0,3.313,0V7.515h4.778a1.253,1.253,0,0,1,1.251,1.251ZM7.518,12.991H47.453V8.766a1.173,1.173,0,0,0-1.172-1.172h-4.7v1.9a1.736,1.736,0,0,1-3.471,0v-1.9H16.86v1.9a1.736,1.736,0,0,1-3.471,0v-1.9H8.69A1.173,1.173,0,0,0,7.518,8.766Z" transform="translate(-4.047 0)"/></g></g><g transform="translate(11.879 18.541)"><path class="b" d="M131.942,194.8a11.88,11.88,0,1,0,11.88,11.88,11.9,11.9,0,0,0-11.88-11.88Zm-3.829,3.01a14.339,14.339,0,0,0-2.078,4.2h-2.552a9.7,9.7,0,0,1,4.63-4.2Zm-5.441,11.617a9.555,9.555,0,0,1,0-5.473h2.91a16.579,16.579,0,0,0,0,5.473Zm.811,1.937h2.552a14.472,14.472,0,0,0,2.078,4.2,9.754,9.754,0,0,1-4.63-4.2Zm7.485,4.564a12.582,12.582,0,0,1-2.877-4.564h2.877Zm0-6.5h-3.407a14.447,14.447,0,0,1-.259-2.736,14.291,14.291,0,0,1,.259-2.737h3.407Zm0-7.431h-2.888a12.451,12.451,0,0,1,2.888-4.575Zm9.421,0h-2.552a14.479,14.479,0,0,0-2.077-4.2,9.763,9.763,0,0,1,4.629,4.2Zm-7.485-4.554a12.55,12.55,0,0,1,2.877,4.564H132.9Zm0,6.5h3.407a14.365,14.365,0,0,1,.259,2.736,14.211,14.211,0,0,1-.259,2.737h-3.417v-5.473Zm0,7.42h2.888a12.43,12.43,0,0,1-2.888,4.575Zm2.856,4.2a14.335,14.335,0,0,0,2.077-4.2h2.552a9.707,9.707,0,0,1-4.629,4.2Zm5.841-8.88a9.532,9.532,0,0,1-.4,2.737h-2.91a16.58,16.58,0,0,0,0-5.473h2.91a9.525,9.525,0,0,1,.4,2.736Zm0,0" transform="translate(-120.062 -194.8)"/></g></svg>