<svg xmlns="http://www.w3.org/2000/svg" width="26.133" height="22.531" viewBox="0 0 26.133 22.531"><defs><style>.a{fill:#263463;}</style></defs><path class="a" d="M53.186,137.1a.771.771,0,0,0-.771.771V145.8H48.161v-7.923a.771.771,0,0,0-.771-.771h-5.8a.771.771,0,0,0-.771.771V145.8H36.568v-7.923a.771.771,0,0,0-1.542,0v8.694a.771.771,0,0,0,.771.771H53.186a.771.771,0,0,0,.771-.771v-8.694A.771.771,0,0,0,53.186,137.1ZM42.364,145.8v-7.152h4.254V145.8Z" transform="translate(-31.425 -124.807)"/><path class="a" d="M25.907,30.036l-12.3-12.295a.771.771,0,0,0-1.091,0L.226,30.036a.771.771,0,0,0,1.091,1.09l11.75-11.75,11.751,11.75a.771.771,0,0,0,1.09-1.091Z" transform="translate(0 -17.516)"/></svg>