<svg xmlns="http://www.w3.org/2000/svg" width="74.656" height="51.669" viewBox="0 0 74.656 51.669"><defs><style>.a{fill:#263463;}.b{fill:#81d62b;}.c{fill:#fff;}</style></defs><path class="a" d="M96.312,346c.545.464,1.3.821,1.6,1.409,2.36,4.551,6.187,7.649,10.142,10.7,6.231,4.8,12.361,9.739,18.5,14.659a1.374,1.374,0,0,0,2.09.009c7.869-6.293,15.851-12.449,23.623-18.86,1.852-1.527,3-3.891,4.55-5.807A21.9,21.9,0,0,1,159.055,346h1.658a21.037,21.037,0,0,1,3.138,1.894,2.666,2.666,0,0,1,.42,4.038c-4.1,5.237-5.65,11.608-7.971,17.63-2.595,6.731-5.041,13.52-7.586,20.377a2.091,2.091,0,0,1-.883-2.8c3.442-9.064,6.786-18.167,10.161-27.257.159-.429.309-.862.511-1.429a6.733,6.733,0,0,1-5.085-3.089l-24.375,19.333,7.66,6.1-1.038,1.419-8.053-6.372-7.949,6.274-1.071-1.383,7.575-6.04-23.979-19.018-5.311,3.2c.247.686.606,1.706.982,2.72,3.152,8.487,6.288,16.98,9.483,25.45.46,1.221.484,2.177-.777,3.028-1.02-2.728-2.035-5.426-3.039-8.128-2.959-7.971-5.84-15.971-8.923-23.893a33.69,33.69,0,0,0-3.315-5.544c-1.573-2.473-1.2-4.187,1.361-5.648a18.674,18.674,0,0,1,2-.865Zm.825,10.9c.912-.621,1.887-1.231,2.788-1.937a1.015,1.015,0,0,0,.2-.967,1,1,0,0,0-.918-.358,24.862,24.862,0,0,0-3.064,1.588,1,1,0,0,0-.271.954C96.041,356.462,96.51,356.567,97.136,356.9Zm59.16-3.529c-.622.292-1.083.364-1.208.608a1,1,0,0,0,.179.963,27.094,27.094,0,0,0,3.16,1.664.978.978,0,0,0,.882-.395,1.037,1.037,0,0,0-.24-.965C158.159,354.554,157.177,353.956,156.3,353.372Z" transform="translate(-90.351 -346)"/><path class="b" d="M190.943,486.81c-.107-4.63,1.987-7.6,6.64-8.587-2.452-3.453-2.544-5.824-.373-7.766a4.807,4.807,0,0,1,6.53-.007c2.185,1.959,2.095,4.331-.369,7.774,4.657.985,6.739,3.964,6.644,8.586Z" transform="translate(-163.146 -435.141)"/><path class="a" d="M156.685,479.283c-1.7-3.07-1.667-4.678.052-6.144a3.856,3.856,0,0,1,4.944-.057c1.729,1.405,1.807,3.049.237,6.1l2.446,1.155-3.63,5.834c-2.456,0-5.342-.009-8.228.005-.886,0-.918-.524-.861-1.193C151.909,481.894,153.608,480.046,156.685,479.283Z" transform="translate(-134.696 -437.34)"/><path class="a" d="M256.849,486.115l-3.638-5.821,2.064-.992a23.445,23.445,0,0,1-.581-4.39c.033-.71.824-1.52,1.47-2.037a3.679,3.679,0,0,1,4.7.227c1.668,1.447,1.692,2.941.109,6.008a27.175,27.175,0,0,1,2.542,1.284,5.526,5.526,0,0,1,2.4,4.849c.009.28-.567.825-.881.833C262.181,486.142,259.334,486.115,256.849,486.115Z" transform="translate(-208.212 -437.282)"/><path class="a" d="M198.59,493.989l-1.964-1.027C197.91,491.8,198.376,491.979,198.59,493.989Z" transform="translate(-167.262 -451.834)"/><path class="a" d="M249.025,493.038l-2.207,1.188C246.865,492.292,247.253,492.071,249.025,493.038Z" transform="translate(-203.585 -452.006)"/><path class="c" d="M111.5,376.847c-.627-.334-1.1-.438-1.261-.72a1,1,0,0,1,.271-.954,24.867,24.867,0,0,1,3.064-1.588,1,1,0,0,1,.918.358,1.015,1.015,0,0,1-.2.967C113.388,375.615,112.413,376.226,111.5,376.847Z" transform="translate(-104.716 -365.946)"/><path class="c" d="M325.715,372.68c.881.584,1.863,1.182,2.773,1.876a1.037,1.037,0,0,1,.24.965.978.978,0,0,1-.882.395,27.091,27.091,0,0,1-3.16-1.664,1,1,0,0,1-.179-.963C324.633,373.044,325.094,372.972,325.715,372.68Z" transform="translate(-259.77 -365.308)"/></svg>