<svg xmlns="http://www.w3.org/2000/svg" width="32.381" height="37.463" viewBox="0 0 32.381 37.463"><defs><style>.a{fill:#404040;}</style></defs><path class="a" d="M54.884,24.29H51.511V15.161A10.557,10.557,0,0,0,44.154,5.114,5.27,5.27,0,0,0,38.892,0H38.8a5.271,5.271,0,0,0-5.259,5.02,10.557,10.557,0,0,0-7.669,10.141V24.29H22.5v8.657H33.4a5.363,5.363,0,0,0,10.592,0H54.884V24.29ZM38.8,1.694h.089a3.577,3.577,0,0,1,3.53,3.03,10.581,10.581,0,0,0-1.449-.1h-4.56a10.594,10.594,0,0,0-1.134.061A3.576,3.576,0,0,1,38.8,1.694Zm-.11,34.076a3.675,3.675,0,0,1-3.57-2.823h7.14A3.675,3.675,0,0,1,38.694,35.769Zm14.5-4.517H24.2V25.983H27.57V15.161a8.854,8.854,0,0,1,8.844-8.844h4.56a8.854,8.854,0,0,1,8.844,8.844V25.983h3.373Z" transform="translate(-22.503)"/></svg>