<svg xmlns="http://www.w3.org/2000/svg" xmlns:xlink="http://www.w3.org/1999/xlink" width="35.06" height="35.06" viewBox="0 0 35.06 35.06"><defs><style>.a{mix-blend-mode:luminosity;isolation:isolate;}.b{fill:url(#a);}.c{fill:#fff;}</style><linearGradient id="a" x1="0.146" y1="0.146" x2="0.854" y2="0.854" gradientUnits="objectBoundingBox"><stop offset="0" stop-color="#3cf"/><stop offset="1" stop-color="#337fff"/></linearGradient></defs><g class="a"><ellipse class="b" cx="14.572" cy="14.572" rx="14.572" ry="14.572" transform="translate(0 28.364) rotate(-76.717)"/><path class="c" d="M185.067,586.559a7.427,7.427,0,0,1-1.817.518c.292-.049.721-.578.893-.792a3.333,3.333,0,0,0,.6-1.1c.015-.032.027-.071,0-.095a.1.1,0,0,0-.1.008,9.254,9.254,0,0,1-2.154.824.144.144,0,0,1-.149-.039,1.726,1.726,0,0,0-.188-.192,3.806,3.806,0,0,0-1.043-.639,3.631,3.631,0,0,0-1.6-.258,3.82,3.82,0,0,0-1.518.429,3.9,3.9,0,0,0-1.225,1,3.76,3.76,0,0,0-.732,1.465,3.972,3.972,0,0,0-.039,1.547c.012.086,0,.1-.074.086a11.5,11.5,0,0,1-7.4-3.767c-.086-.1-.133-.1-.2.008a3.753,3.753,0,0,0,.64,4.434c.145.137.294.275.455.4a3.768,3.768,0,0,1-1.428-.4c-.087-.055-.13-.023-.137.075a2.275,2.275,0,0,0,.023.424,3.8,3.8,0,0,0,2.339,3.025,2.221,2.221,0,0,0,.474.145,4.227,4.227,0,0,1-1.4.043c-.1-.02-.141.032-.1.129a3.939,3.939,0,0,0,2.943,2.465c.133.023.267.023.4.055-.008.012-.016.012-.023.024a4.668,4.668,0,0,1-2.01,1.065,7.2,7.2,0,0,1-3.052.391c-.164-.024-.2-.023-.243,0s-.006.067.047.109c.208.137.42.259.636.377a10.075,10.075,0,0,0,2.04.816,10.867,10.867,0,0,0,10.55-2.467,11.071,11.071,0,0,0,2.919-8.076c0-.116.137-.18.219-.241a7.142,7.142,0,0,0,1.435-1.493.452.452,0,0,0,.1-.286v-.016C185.141,586.512,185.14,586.526,185.067,586.559Z" transform="translate(-158.68 -574.649)"/></g></svg>